<?xml version="1.0" encoding="UTF-8"?>
<!DOCTYPE svg PUBLIC "-//W3C//DTD SVG 1.1//EN" "http://www.w3.org/Graphics/SVG/1.1/DTD/svg11.dtd">
<!-- Creator: CorelDRAW X7 -->
<svg xmlns="http://www.w3.org/2000/svg" xml:space="preserve" width="200mm" height="220mm" version="1.1" style="shape-rendering:geometricPrecision; text-rendering:geometricPrecision; image-rendering:optimizeQuality; fill-rule:evenodd; clip-rule:evenodd"
viewBox="0 0 20000 22000"
 xmlns:xlink="http://www.w3.org/1999/xlink">
 <defs>
  <style type="text/css">
   <![CDATA[
    .fil3 {fill:#37378E}
    .fil0 {fill:#386FB4}
    .fil1 {fill:#FDD000}
    .fil2 {fill:#FEFEFE}
   ]]>
  </style>
 </defs>
 <g id="Layer_x0020_1">
  <metadata id="CorelCorpID_0Corel-Layer"/>
  <g id="_1465005378064">
   <path class="fil0" d="M16339 7583c61,924 388,2047 1061,3331 713,1365 1054,2791 908,4316 -183,1903 -1849,3315 -5021,3963 -1621,330 -2725,795 -3268,1654 -668,-1048 -2811,-1553 -3305,-1654 -3174,-647 -4840,-2060 -5022,-3963 -147,-1525 194,-2951 909,-4316 673,-1284 1000,-2407 1060,-3331l12681 0 -3 0z"/>
   <path class="fil1" d="M16319 6977c255,-1168 759,-2208 1515,-3119 -1249,-883 -2075,-1784 -2473,-2705 -1774,2472 -8952,2472 -10725,0 -399,919 -1223,1821 -2474,2705 756,911 1260,1951 1515,3119l12642 0z"/>
   <polygon class="fil2" points="3668,6977 16330,6977 16330,7583 3668,7583 "/>
   <polygon class="fil2" points="9998,3369 10355,4584 11516,4582 10575,5331 10937,6546 9998,5793 9060,6546 9421,5331 8480,4582 9642,4584 "/>
   <polygon class="fil2" points="7235,3790 7468,4582 8224,4581 7611,5069 7847,5859 7235,5369 6624,5859 6859,5069 6246,4581 7003,4582 "/>
   <polygon class="fil2" points="5085,3790 5317,4582 6075,4581 5461,5069 5696,5859 5085,5369 4473,5859 4708,5069 4096,4581 4852,4582 "/>
   <polygon class="fil2" points="14912,3790 15144,4582 15901,4581 15288,5069 15523,5859 14912,5369 14300,5859 14535,5069 13923,4581 14679,4582 "/>
   <polygon class="fil2" points="12761,3790 12994,4582 13750,4581 13138,5069 13373,5859 12761,5369 12151,5859 12385,5069 11772,4581 12529,4582 "/>
   <polygon class="fil2" points="5517,14711 5385,15527 6140,15854 5305,16030 5175,16848 4792,16139 3957,16319 4555,15704 4169,14998 4922,15327 "/>
   <polygon class="fil2" points="14479,14711 14612,15527 13858,15854 14692,16030 14821,16848 15204,16139 16039,16319 15441,15704 15827,14998 15074,15327 "/>
   <polygon class="fil2" points="8356,15673 8397,16500 9201,16662 8423,17007 8465,17834 7944,17221 7164,17569 7621,16843 7097,16233 7902,16398 "/>
   <polygon class="fil2" points="11640,15673 11601,16500 10795,16662 11575,17007 11531,17834 12054,17221 12832,17569 12375,16843 12899,16233 12095,16398 "/>
   <path class="fil3" d="M14650 8863l795 0 0 4714 -795 0 0 -4714zm-1742 0l0 0 795 0 0 4714 -795 0 0 -4714zm-507 4714l0 0 -770 0 -467 -2538 -898 2604 -282 0 -898 -2604 -479 2538 -769 0 901 -4714 420 0 966 3178 942 -3178 420 0 914 4714zm-7054 -3985l0 0 0 1503c135,15 241,22 319,22 363,0 628,-63 795,-190 167,-126 250,-335 250,-620 0,-488 -374,-732 -1123,-732 -83,0 -165,6 -242,17l1 0zm0 2248l0 0 0 1737 -795 0 0 -4712c530,-23 839,-35 930,-35 709,0 1226,114 1553,342 327,229 491,585 491,1070 0,1080 -606,1621 -1818,1621 -89,0 -209,-8 -361,-23z"/>
  </g>
 </g>
</svg>
